<?xml version="1.0" standalone="no"?>
<!DOCTYPE svg PUBLIC "-//W3C//DTD SVG 20010904//EN"
 "http://www.w3.org/TR/2001/REC-SVG-20010904/DTD/svg10.dtd">
<svg version="1.0" xmlns="http://www.w3.org/2000/svg"
 width="1360.000000pt" height="1360.000000pt" viewBox="0 0 1360.000000 1360.000000"
 preserveAspectRatio="xMidYMid meet">
<metadata>
Created by potrace 1.14, written by Peter Selinger 2001-2017
</metadata>
<g transform="translate(0.000000,1360.000000) scale(0.100000,-0.100000)"
fill="#000000" stroke="none">
<path d="M2230 13523 c0 -5 -49 -8 -110 -7 l-110 1 0 -1878 c0 -1033 0 -1881
-1 -1886 -1 -4 -1 -12 0 -18 2 -10 1 -290 0 -303 -1 -4 -1 -11 0 -17 2 -13 2
-1571 0 -1582 -1 -4 -1 -12 0 -18 2 -10 1 -290 0 -303 -1 -4 -1 -11 0 -17 2
-13 2 -5412 0 -5422 -1 -4 -1 -12 0 -18 2 -10 1 -290 0 -303 -1 -4 -1 -11 0
-17 1 -5 1 -398 1 -872 l0 -863 1530 0 c1217 0 1530 3 1531 13 0 6 1 1137 1
2513 l1 2500 1031 2 c1020 1 1174 3 1195 16 6 4 11 2 11 -4 0 -6 4 -9 8 -6 4
2 41 8 82 11 41 4 91 8 110 10 63 5 175 17 190 20 8 1 40 6 70 10 52 6 295 48
350 60 14 3 40 8 59 10 18 3 37 8 42 11 5 3 22 8 37 10 15 3 54 12 87 21 33 8
68 17 78 18 25 5 58 16 252 80 94 31 175 57 180 59 6 2 23 8 38 14 16 7 30 12
32 12 2 0 16 5 32 12 15 6 30 12 33 13 3 1 27 11 53 23 27 12 50 22 52 22 2 0
46 19 97 43 51 24 95 44 98 44 3 0 24 12 48 26 23 15 42 24 42 21 0 -4 7 -1
15 6 8 6 29 20 47 29 62 32 133 74 160 92 14 11 29 19 32 19 6 0 247 160 256
169 3 4 41 33 85 66 44 32 85 64 91 69 7 6 29 25 49 41 113 90 333 307 438
430 38 44 79 91 91 105 12 14 44 54 71 90 27 36 53 67 57 68 4 2 8 8 8 14 0 5
6 16 13 23 23 26 34 41 38 50 8 20 104 160 112 163 4 2 7 8 7 13 0 9 60 111
70 119 4 3 48 88 98 190 86 176 160 350 198 470 9 30 21 60 25 66 5 6 6 14 2
17 -3 4 0 14 8 23 8 10 13 20 12 23 -3 7 14 77 24 101 3 8 7 20 8 25 1 6 3 12
4 15 2 3 4 12 6 20 2 8 6 26 9 40 3 14 7 34 10 45 32 135 81 410 91 515 2 19
7 60 10 90 39 321 35 922 -9 1215 -2 17 -7 57 -11 89 -12 113 -70 400 -111
551 -3 11 -6 25 -7 30 -2 6 -6 16 -10 23 -5 6 -6 12 -3 12 3 0 1 12 -5 28 -6
15 -12 34 -14 42 -7 34 -68 206 -76 215 -5 5 -9 15 -9 22 0 8 -9 33 -20 55
-11 23 -20 48 -20 55 0 7 -5 13 -11 13 -6 0 -9 7 -5 15 3 8 1 15 -4 15 -6 0
-9 3 -8 8 2 10 -35 85 -47 94 -5 4 -7 8 -2 8 7 0 -26 65 -80 160 -11 19 -29
50 -39 69 -11 19 -22 40 -27 45 -4 6 -41 62 -82 124 -66 99 -150 217 -165 232
-3 3 -17 21 -31 40 -28 36 -36 46 -117 140 -75 87 -373 380 -387 380 -4 0 -32
23 -84 70 -9 8 -50 39 -91 69 -41 30 -78 59 -82 65 -4 6 -8 7 -8 3 0 -5 -17 4
-38 20 -39 31 -84 60 -117 79 -11 6 -46 27 -77 48 -32 20 -58 33 -58 29 0 -4
-4 -3 -8 4 -11 17 -390 206 -432 215 -8 2 -18 7 -21 11 -3 5 -12 9 -20 10 -8
2 -45 15 -84 31 -124 50 -200 78 -260 97 -22 6 -49 15 -60 20 -11 4 -38 13
-60 19 -22 6 -47 14 -55 17 -22 9 -21 9 -65 18 -22 4 -44 10 -50 14 -5 3 -14
6 -20 7 -5 1 -66 16 -135 33 -119 29 -295 66 -370 77 -19 3 -46 7 -60 10 -14
2 -41 7 -60 10 -19 3 -46 7 -60 10 -14 2 -52 6 -85 9 -33 3 -73 8 -90 10 -59
8 -131 15 -188 19 -32 2 -60 6 -63 9 -4 3 -17 2 -30 -3 -13 -5 -24 -6 -24 -2
0 10 14 9 -311 15 -135 2 -251 7 -257 11 -7 4 -12 3 -12 -1 0 -11 -211 -10
-228 1 -7 4 -12 3 -12 -1 0 -11 -211 -10 -228 1 -7 4 -12 3 -12 -1 0 -11 -211
-10 -228 1 -7 4 -12 3 -12 -1 0 -11 -211 -10 -228 1 -7 4 -12 3 -12 -1 0 -11
-211 -10 -228 1 -7 4 -12 3 -12 -1 0 -11 -211 -10 -228 1 -7 4 -12 3 -12 -1 0
-11 -211 -10 -228 1 -7 4 -12 3 -12 -1 0 -11 -211 -10 -228 1 -7 4 -12 3 -12
-1 0 -11 -211 -10 -228 1 -7 4 -12 3 -12 -1 0 -11 -211 -10 -228 1 -7 4 -12 3
-12 -1 0 -11 -211 -10 -228 1 -7 4 -12 3 -12 -1 0 -11 -211 -10 -228 1 -7 4
-12 3 -12 -1 0 -11 -211 -10 -228 1 -7 4 -12 3 -12 -1 0 -11 -211 -10 -228 1
-7 4 -12 3 -12 -1 0 -11 -211 -10 -228 1 -7 4 -12 3 -12 -1 0 -11 -211 -10
-228 1 -7 4 -12 3 -12 -1 0 -11 -211 -10 -228 1 -7 4 -12 3 -12 -1 0 -11 -211
-10 -228 1 -7 4 -12 3 -12 -1 0 -11 -211 -10 -228 1 -7 4 -12 3 -12 -1z m3027
-2427 c18 -2 35 0 39 5 3 5 13 5 24 -1 13 -7 21 -7 25 0 4 6 11 8 16 4 6 -3
42 -5 82 -5 99 2 118 2 144 -3 13 -3 25 -1 28 5 4 5 13 5 25 -1 13 -7 21 -7
25 0 4 6 11 8 16 4 6 -3 42 -5 82 -5 99 2 118 2 144 -3 13 -3 25 -1 28 5 4 5
13 5 25 -1 13 -7 21 -7 25 0 4 6 11 8 16 4 13 -8 165 -8 178 1 6 3 11 3 11 -2
0 -4 37 -9 83 -10 45 -1 116 -5 157 -9 41 -3 93 -8 115 -10 22 -1 41 -4 43 -5
4 -3 15 -5 76 -13 69 -9 106 -15 126 -21 8 -2 31 -7 50 -10 109 -18 452 -126
483 -153 9 -8 17 -12 17 -8 0 10 206 -98 249 -131 89 -66 112 -83 116 -83 3 0
13 -8 23 -17 10 -10 43 -41 73 -69 68 -64 189 -201 189 -214 0 -3 9 -16 20
-27 28 -31 109 -170 102 -177 -3 -3 0 -6 6 -6 7 0 12 -6 12 -13 0 -7 8 -31 19
-53 20 -42 76 -211 85 -259 42 -217 47 -267 49 -510 2 -300 -23 -484 -99 -711
-15 -43 -30 -84 -35 -90 -5 -6 -6 -14 -2 -17 3 -4 1 -7 -5 -7 -7 0 -12 -7 -12
-16 0 -19 -67 -145 -113 -213 -51 -76 -105 -139 -197 -229 -106 -103 -102
-100 -180 -156 -36 -25 -70 -49 -75 -53 -22 -16 -71 -44 -105 -61 -19 -9 -37
-19 -40 -22 -9 -10 -154 -73 -167 -73 -7 0 -13 -4 -13 -8 0 -5 -16 -11 -35
-15 -19 -3 -35 -10 -35 -15 0 -5 -3 -8 -7 -7 -5 1 -37 -7 -73 -19 -36 -11 -89
-27 -117 -34 -29 -7 -53 -17 -53 -21 0 -5 -4 -6 -10 -3 -5 3 -29 1 -52 -6 -24
-6 -52 -13 -63 -15 -11 -2 -31 -5 -45 -9 -14 -3 -41 -8 -60 -10 -19 -3 -44 -7
-55 -10 -26 -5 -118 -16 -170 -20 -22 -2 -40 -4 -40 -5 0 -10 -1312 -22 -1341
-13 -8 3 -11 504 -10 1826 l1 1822 58 1 c32 1 61 4 64 7 3 3 10 4 16 2 7 -2
27 -6 44 -9z"/>
</g>
</svg>
